<svg width="20" height="21" viewBox="0 0 20 21" fill="none" xmlns="http://www.w3.org/2000/svg">
<path d="M10 0.125C6.12297 0.125 2.96875 3.27922 2.96875 7.15625C2.96875 8.46617 3.3316 9.74453 4.01832 10.8536L9.59977 19.848C9.65233 19.9327 9.72564 20.0026 9.81276 20.0511C9.89988 20.0996 9.99792 20.125 10.0976 20.125H10.1023C10.2027 20.1242 10.3013 20.0976 10.3885 20.0477C10.4758 19.9978 10.5487 19.9264 10.6003 19.8402L16.0395 10.7586C16.6883 9.67297 17.0312 8.4273 17.0312 7.15625C17.0312 3.27922 13.877 0.125 10 0.125ZM15.0338 10.157L10.0888 18.4135L5.01434 10.2362C4.44273 9.31305 4.13281 8.24805 4.13281 7.15625C4.13281 3.92539 6.76914 1.28906 10 1.28906C13.2309 1.28906 15.8633 3.92539 15.8633 7.15625C15.8633 8.21566 15.5738 9.25344 15.0338 10.157Z" fill="#595959"/>
<path d="M10 3.64062C8.06148 3.64062 6.48438 5.21773 6.48438 7.15625C6.48438 9.08238 8.03582 10.6719 10 10.6719C11.9884 10.6719 13.5156 9.06121 13.5156 7.15625C13.5156 5.21773 11.9385 3.64062 10 3.64062ZM10 9.50781C8.7009 9.50781 7.64844 8.45184 7.64844 7.15625C7.64844 5.86391 8.70766 4.80469 10 4.80469C11.2923 4.80469 12.3477 5.86391 12.3477 7.15625C12.3477 8.43293 11.3197 9.50781 10 9.50781Z" fill="#595959"/>
</svg>
