<svg width="33" height="14" viewBox="0 0 33 14" fill="none" xmlns="http://www.w3.org/2000/svg">
<path d="M9.77729 8.13114C9.54586 7.90431 9.26865 7.72955 8.9642 7.61854C8.5223 7.47713 8.39857 7.45946 7.17894 7.45946H5.25227V12.285H7.01985C8.64603 12.285 8.87582 12.2496 9.45912 11.8961C10.0424 11.5426 10.4136 10.7648 10.4136 9.89873C10.4136 9.15634 10.1838 8.53769 9.77729 8.13114ZM9.37074 2.01529C9.14955 1.80359 8.87437 1.65682 8.57533 1.59107C8.16879 1.48502 7.95668 1.48502 6.80774 1.48502H5.23459V5.86863H7.17894C7.95668 5.86863 8.59301 5.76258 8.98188 5.58582C9.60053 5.32068 10.0071 4.56062 10.0071 3.6945C10.0259 3.38551 9.97895 3.07603 9.86925 2.78656C9.75955 2.49708 9.58964 2.23419 9.37074 2.01529ZM12.9413 12.1082C12.6926 12.5726 12.3191 12.9583 11.863 13.2218C11.3805 13.5127 10.8347 13.6825 10.2722 13.7167C9.9894 13.7344 9.4768 13.7344 8.75209 13.7344H0.25V12.2496H1.38126C1.62053 12.2706 1.86153 12.2405 2.08829 12.1612C2.2059 12.0994 2.29928 11.9998 2.35343 11.8784C2.4315 11.7376 2.47398 11.5798 2.47716 11.4189C2.47716 11.3128 2.49483 11.136 2.49483 10.8355V2.88141C2.49483 2.61627 2.47716 2.40416 2.47716 2.29811C2.47569 2.13688 2.4331 1.9787 2.35343 1.83853C2.2297 1.55572 1.98223 1.46734 1.38126 1.46734H0.25V0.000244141H6.71937C7.40872 0.000244141 7.939 0.01792 8.31019 0.01792C9.79496 0.0532717 10.8555 0.353761 11.757 0.990092C12.1629 1.27615 12.4916 1.65837 12.7137 2.10255C12.9358 2.54673 13.0444 3.03903 13.0296 3.53542C13.0436 3.95393 12.9654 4.3704 12.8004 4.75529C12.6355 5.14019 12.3879 5.48407 12.0752 5.76257C11.5802 6.22215 11.2267 6.39891 10.2899 6.66404C11.2444 6.91151 11.5095 7.01756 12.0575 7.37108C12.9236 7.90135 13.4362 8.96191 13.4362 10.1639C13.4362 10.8431 13.2661 11.5116 12.9413 12.1082Z" fill="white"/>
<path d="M14.125 13.7346V12.2498H15.3623C15.5944 12.2642 15.8273 12.2403 16.0517 12.1791C16.16 12.111 16.246 12.0127 16.2992 11.8963C16.3749 11.7609 16.4173 11.6094 16.4229 11.4544C16.4229 11.3483 16.4406 11.1716 16.4406 10.9241V5.16178H14.125V3.83609C16.0163 3.81842 16.6173 3.44722 17.0946 1.9978H18.8622V10.3408L18.8798 10.9241C18.8722 11.1011 18.8781 11.2783 18.8975 11.4544C18.8989 11.6078 18.9352 11.7589 19.0036 11.8963C19.145 12.1791 19.3571 12.2498 19.9581 12.2498H21.107V13.7346H14.125Z" fill="white"/>
<path d="M31.9243 11.3661C31.6769 13.0983 30.6163 13.9998 28.9018 13.9998C27.9296 13.9998 27.1518 13.7523 25.3136 12.8508C24.7833 12.6034 24.4828 12.4973 24.2177 12.4973C23.652 12.4973 23.3162 12.8332 23.3162 13.4341V13.7169H21.9551C21.9375 13.5225 21.9375 13.3634 21.9375 13.2574C21.9428 12.5692 22.0684 11.8872 22.3087 11.2423C22.7506 10.0934 23.5106 9.36869 25.1898 8.5556C25.9499 8.1844 26.4802 7.91927 26.7807 7.76018C27.1985 7.55098 27.5804 7.27651 27.9119 6.94709C28.3406 6.51275 28.5872 5.93104 28.6013 5.32092C28.6013 3.95987 27.6114 3.11143 26.0206 3.11143C24.6419 3.11143 23.8641 3.60636 23.546 4.68458C23.7739 4.56016 24.0287 4.49341 24.2884 4.49015C25.0484 4.49015 25.5964 5.07345 25.5964 5.88654C25.5964 6.82336 24.9777 7.44202 24.0409 7.44202C22.892 7.44202 22.1319 6.59358 22.1319 5.32092C22.1375 4.83088 22.2495 4.34792 22.4601 3.9054C22.6707 3.46289 22.9748 3.07137 23.3515 2.75792C24.2177 2.01553 25.2605 1.67969 26.7807 1.67969C29.5911 1.67969 31.5001 3.23516 31.5001 5.5507C31.5001 7.47737 30.4042 8.5556 27.7882 9.24496C25.3489 9.89896 25.1014 9.98734 24.2884 10.6767C23.8818 11.0125 23.7227 11.2423 23.546 11.8433C24.147 11.3484 24.5712 11.1893 25.4019 11.1893C25.6445 11.1887 25.8868 11.2065 26.1266 11.2423L27.8412 11.5251C28.2037 11.585 28.5698 11.6205 28.9371 11.6312C30.2628 11.6312 30.8284 11.0479 30.8461 9.56312H32.0657C32.0491 10.1661 32.0019 10.7679 31.9243 11.3661Z" fill="white"/>
</svg>
